<svg width="40" height="40" viewBox="0 0 40 40" fill="none" xmlns="http://www.w3.org/2000/svg">
    <path d="M40 20C40 8.9543 31.0457 0 20 0C8.9543 0 0 8.9543 0 20C0 31.0457 8.9543 40 20 40C31.0457 40 40 31.0457 40 20Z" fill="#ED1C40"/>
    <path d="M12.5075 26.7998C12.5555 27.0466 12.4009 27.2783 12.1448 27.3287C11.8995 27.3741 11.6488 27.228 11.6008 26.9861C11.5528 26.7544 11.7075 26.5076 11.9528 26.4572C12.1928 26.4068 12.4542 26.5529 12.5075 26.7998ZM19.0146 29.8677C18.7266 30.0641 18.6519 30.4419 18.844 30.7291C19.052 31.0112 19.452 31.0867 19.756 30.8903C20.044 30.6938 20.1187 30.316 19.9107 30.0289C19.7187 29.7467 19.3186 29.6712 19.0146 29.8677ZM15.105 10.0045C15.393 9.94408 15.5744 9.67203 15.5104 9.40503C15.4624 9.12295 15.1744 8.95165 14.8864 9.01211C14.5983 9.07257 14.417 9.34457 14.4703 9.61157C14.5343 9.8987 14.817 10.07 15.105 10.0045ZM9.56868 18.7245C9.11529 18.4273 8.49124 18.5382 8.17654 18.9815C7.86189 19.4096 7.97921 20.0142 8.4379 20.3114C8.89129 20.6187 9.51534 20.5078 9.82999 20.0646C10.1393 19.6162 10.022 19.0268 9.56868 18.7245ZM21.9428 11.3798C22.4229 11.1078 22.5668 10.5183 22.2949 10.0801C22.0068 9.6267 21.3988 9.48062 20.9294 9.74758C20.4601 10.0146 20.3054 10.609 20.5934 11.0624C20.8601 11.5057 21.4735 11.6518 21.9428 11.3798ZM13.2489 13.8734C13.6009 13.6416 13.6756 13.1883 13.4462 12.8558C13.2169 12.5233 12.7315 12.4528 12.3955 12.6694C12.0435 12.9011 11.9688 13.3545 12.1982 13.687C12.4275 14.0245 12.9075 14.095 13.2489 13.8734ZM30.1834 20.5733C29.8474 20.6438 29.6233 20.9663 29.7033 21.2987C29.7674 21.6161 30.1087 21.8277 30.4448 21.7521C30.7808 21.6917 31.0048 21.3693 30.9248 21.0368C30.8554 20.7245 30.5194 20.5129 30.1834 20.5733ZM31.9862 18.1352C31.9382 17.8883 31.6875 17.7422 31.4421 17.7926C31.1808 17.8379 31.0261 18.0898 31.0794 18.3316C31.1274 18.5633 31.3781 18.7245 31.6395 18.6742C31.8848 18.6137 32.0502 18.382 31.9862 18.1352ZM28.3379 14.9665C27.9486 15.2234 27.8579 15.7272 28.1139 16.0949C28.3753 16.4627 28.9033 16.5483 29.298 16.3065C29.6767 16.0496 29.7674 15.5458 29.506 15.1781C29.2447 14.8053 28.7113 14.7096 28.3379 14.9665ZM28.0499 20.9562C29.2447 22.81 28.738 25.2533 26.8552 26.5026C26.0658 27.0315 25.1697 27.2632 24.2683 27.2381C23.7243 29.2631 21.1108 30.0137 19.4893 28.6385C19.4413 28.6788 19.372 28.709 19.3186 28.7644C17.5425 29.9281 15.121 29.51 13.8889 27.8073C13.4462 27.1927 13.2222 26.4925 13.2009 25.7923C10.2247 25.3238 9.1046 21.7521 11.3288 19.7925C10.0433 17.7775 11.3554 15.1781 13.7556 14.8557C14.897 12.0095 18.6519 10.6644 21.1961 12.5283C24.263 11.5712 27.3939 13.7928 27.1485 16.8707C29.0207 17.4097 29.554 19.7421 28.0499 20.9562ZM24.8657 24.15C24.727 23.2634 23.0043 23.9535 22.9029 22.9863C22.7642 21.6111 24.8923 18.644 24.7217 17.4853C24.567 16.4526 23.8416 16.236 23.2016 16.2209C22.5935 16.2057 22.4335 16.3065 22.2255 16.4173C22.0922 16.4879 21.9268 16.6289 21.6921 16.4022C21.4041 16.1453 21.1854 15.8984 20.8121 15.8481C20.252 15.7624 20.0067 15.9337 19.6013 16.2662C19.4466 16.3922 19.0573 16.8203 18.6893 16.6592C18.5346 16.5886 17.9906 16.3267 17.5959 16.1705C16.8545 15.8632 15.7771 16.3669 15.3877 17.0319C14.801 18.0142 13.6596 21.8932 13.4889 22.407C13.0996 23.5505 13.985 24.4925 15.169 24.4321C15.6757 24.4069 16.0011 24.2357 16.3264 23.6865C16.5078 23.3692 18.2253 19.062 18.3533 18.8505C18.4439 18.7044 18.7586 18.5079 19.02 18.6339C19.2813 18.7648 19.3347 19.0369 19.292 19.2837C19.244 19.7018 18.0172 22.3314 17.9799 22.6236C17.8252 23.6059 19.2013 23.7672 19.7347 22.7949C19.9053 22.4876 21.8148 18.8152 21.9802 18.5734C22.1775 18.3014 22.3162 18.2158 22.5136 18.2309C22.6522 18.2309 22.8922 18.2712 22.8389 18.6993C22.7749 19.1023 21.2441 21.8075 21.0681 22.4674C20.8601 23.3541 21.3668 24.2457 22.1989 24.6437C22.7216 24.8704 25.047 25.2986 24.8657 24.15ZM25.127 28.1146C24.6577 28.4319 24.5403 29.0616 24.8657 29.515C25.191 29.9684 25.8418 30.0792 26.3218 29.7719C26.8018 29.4546 26.9192 28.8249 26.5938 28.3715C26.2578 27.9181 25.6071 27.7922 25.127 28.1146Z" fill="white"/>
</svg>
    